<svg width="37" height="36" viewBox="0 0 37 36" fill="none" xmlns="http://www.w3.org/2000/svg">
<g id="Social Media Icon Square/LinkedIn">
<g id="Group 73">
<rect id="Social Media Icon" x="0.5" width="36" height="36" rx="8" fill="#F3F4F6"/>
<path id="LinkedIn" d="M9.5 11.4198C9.5 10.8426 9.70271 10.3664 10.1081 9.99124C10.5135 9.61605 11.0405 9.42847 11.6892 9.42847C12.3263 9.42847 12.8417 9.61316 13.2355 9.98258C13.6409 10.3635 13.8436 10.8599 13.8436 11.4718C13.8436 12.0259 13.6467 12.4876 13.2529 12.857C12.8475 13.238 12.3147 13.4285 11.6544 13.4285H11.6371C11 13.4285 10.4846 13.238 10.0907 12.857C9.69691 12.4761 9.5 11.997 9.5 11.4198ZM9.72587 26.5713V15.0042H13.583V26.5713H9.72587ZM15.7201 26.5713H19.5772V20.1124C19.5772 19.7084 19.6236 19.3967 19.7162 19.1774C19.8784 18.7849 20.1245 18.453 20.4546 18.1817C20.7847 17.9104 21.1988 17.7748 21.6969 17.7748C22.9942 17.7748 23.6429 18.6464 23.6429 20.3895V26.5713H27.5V19.9393C27.5 18.2308 27.0946 16.935 26.2838 16.0518C25.473 15.1687 24.4015 14.7272 23.0695 14.7272C21.5753 14.7272 20.4112 15.3679 19.5772 16.6492V16.6839H19.5598L19.5772 16.6492V15.0042H15.7201C15.7432 15.3736 15.7548 16.5222 15.7548 18.4501C15.7548 20.378 15.7432 23.085 15.7201 26.5713Z" fill="#4B5563"/>
</g>
</g>
</svg>
