<svg width="13" height="13" viewBox="0 0 13 13" fill="none" xmlns="http://www.w3.org/2000/svg">
<path d="M0.507812 12.3594C0.414062 12.2708 0.351562 12.1667 0.320312 12.0469C0.294271 11.9271 0.296875 11.8073 0.328125 11.6875C0.359375 11.5677 0.419271 11.4635 0.507812 11.375L5.50781 6.36719L0.507812 1.36719C0.419271 1.27865 0.359375 1.17448 0.328125 1.05469C0.302083 0.934896 0.302083 0.815104 0.328125 0.695312C0.359375 0.575521 0.419271 0.471354 0.507812 0.382812C0.596354 0.289062 0.700521 0.229167 0.820312 0.203125C0.940104 0.171875 1.0599 0.171875 1.17969 0.203125C1.30469 0.229167 1.41146 0.289062 1.5 0.382812L6.5 5.38281L11.5 0.382812C11.5885 0.289062 11.6927 0.229167 11.8125 0.203125C11.9323 0.171875 12.0521 0.171875 12.1719 0.203125C12.2917 0.229167 12.3984 0.289062 12.4922 0.382812C12.5807 0.471354 12.6406 0.575521 12.6719 0.695312C12.7031 0.815104 12.7031 0.934896 12.6719 1.05469C12.6406 1.17448 12.5807 1.27865 12.4922 1.36719L7.49219 6.36719L12.4922 11.375C12.5807 11.4635 12.638 11.5677 12.6641 11.6875C12.6953 11.8073 12.6953 11.9271 12.6641 12.0469C12.638 12.1667 12.5807 12.2708 12.4922 12.3594C12.4036 12.4531 12.2969 12.513 12.1719 12.5391C12.0521 12.5703 11.9323 12.5703 11.8125 12.5391C11.6927 12.5078 11.5885 12.4479 11.5 12.3594L6.5 7.35938L1.5 12.3594C1.41146 12.4479 1.30729 12.5078 1.1875 12.5391C1.06771 12.5703 0.947917 12.5703 0.828125 12.5391C0.708333 12.5078 0.601562 12.4479 0.507812 12.3594Z" fill="white"/>
</svg>
