<svg width="13" height="14" viewBox="0 0 13 14" fill="none" xmlns="http://www.w3.org/2000/svg">
<path d="M0.0546875 7.35938C0.0546875 7.16667 0.122396 7.0026 0.257812 6.86719C0.398438 6.72656 0.5625 6.65625 0.75 6.65625H5.80469V1.60938C5.80469 1.42188 5.8724 1.26042 6.00781 1.125C6.14323 0.984375 6.30729 0.914062 6.5 0.914062C6.69271 0.914062 6.85677 0.984375 6.99219 1.125C7.13281 1.26042 7.20312 1.42188 7.20312 1.60938V6.65625H12.25C12.4375 6.65625 12.599 6.72656 12.7344 6.86719C12.875 7.0026 12.9453 7.16667 12.9453 7.35938C12.9453 7.55208 12.875 7.71615 12.7344 7.85156C12.599 7.98698 12.4375 8.05469 12.25 8.05469H7.20312V13.1094C7.20312 13.2969 7.13281 13.4583 6.99219 13.5938C6.85677 13.7344 6.69271 13.8047 6.5 13.8047C6.30729 13.8047 6.14323 13.7344 6.00781 13.5938C5.8724 13.4583 5.80469 13.2969 5.80469 13.1094V8.05469H0.75C0.5625 8.05469 0.398438 7.98698 0.257812 7.85156C0.122396 7.71615 0.0546875 7.55208 0.0546875 7.35938Z" fill="black"/>
</svg>
